name Walk1.mot
datacolumns 19
datarows 27
range 1.26000000 1.39000000
endheader

                time	   L_ground_force_vx	   L_ground_force_vy	   L_ground_force_vz	   L_ground_force_px	   L_ground_force_py	   L_ground_force_pz	   R_ground_force_vx	   R_ground_force_vy	   R_ground_force_vz	   R_ground_force_px	   R_ground_force_py	   R_ground_force_pz	   L_ground_torque_x	   L_ground_torque_y	   L_ground_torque_z	   R_ground_torque_x	   R_ground_torque_y	   R_ground_torque_z	
          1.26000000	         -9.98311549	         88.90818951	         -8.05322162	         -0.13779448	          0.00000000	         -0.00526767	          0.00000000	         -0.00000000	         -0.00000000	         -0.00000000	          0.00000000	         -0.00000000	          0.00000000	          0.06247203	          0.00000000	          0.00000000	         -0.00000000	          0.00000000	
          1.26500000	        -16.40788079	        133.08595927	        -11.75886402	         -0.18001395	          0.00000000	         -0.00653078	          0.00000000	         -0.00000000	         -0.00000000	         -0.00000000	          0.00000000	         -0.00000000	          0.00000000	          0.15545939	          0.00000000	          0.00000000	         -0.00000000	          0.00000000	
          1.27000000	        -24.40330347	        185.56327499	        -16.08741568	         -0.22366692	          0.00000000	         -0.00769631	          0.00000000	         -0.00000000	         -0.00000000	         -0.00000000	          0.00000000	         -0.00000000	          0.00000000	          0.28128509	          0.00000000	          0.00000000	         -0.00000000	          0.00000000	
          1.27500000	        -33.88643416	        244.56953152	        -20.86978854	         -0.26505382	          0.00000000	         -0.00862439	          0.00000000	         -0.00000000	         -0.00000000	         -0.00000000	          0.00000000	         -0.00000000	          0.00000000	          0.44246973	          0.00000000	          0.00000000	         -0.00000000	          0.00000000	
          1.28000000	        -44.68591254	        307.07014728	        -25.85576592	         -0.30153531	          0.00000000	         -0.00927992	          0.00000000	         -0.00000000	         -0.00000000	         -0.00000000	          0.00000000	         -0.00000000	          0.00000000	          0.63718187	          0.00000000	          0.00000000	         -0.00000000	          0.00000000	
          1.28500000	        -56.58366228	        369.64552150	        -30.67863201	         -0.33183363	          0.00000000	         -0.00970608	          0.00000000	         -0.00000000	         -0.00000000	         -0.00000000	          0.00000000	         -0.00000000	          0.00000000	          0.85861535	          0.00000000	          0.00000000	         -0.00000000	          0.00000000	
          1.29000000	        -69.19935845	        429.60634029	        -34.83697750	         -0.35563023	          0.00000000	         -0.00997501	          0.00000000	         -0.00000000	         -0.00000000	         -0.00000000	          0.00000000	         -0.00000000	          0.00000000	          1.09551370	          0.00000000	          0.00000000	         -0.00000000	          0.00000000	
          1.29500000	        -81.88987794	        485.10317911	        -37.86485017	         -0.37324409	          0.00000000	         -0.01016065	          0.00000000	         -0.00000000	         -0.00000000	         -0.00000000	          0.00000000	         -0.00000000	          0.00000000	          1.33077757	          0.00000000	          0.00000000	         -0.00000000	          0.00000000	
          1.30000000	        -93.82058694	        534.82833624	        -39.47666536	         -0.38537263	          0.00000000	         -0.01032307	          0.00000000	         -0.00000000	         -0.00000000	         -0.00000000	          0.00000000	         -0.00000000	          0.00000000	          1.54207588	          0.00000000	          0.00000000	         -0.00000000	          0.00000000	
          1.30500000	       -104.20359083	        578.05699975	        -39.52820568	         -0.39289130	          0.00000000	         -0.01050937	          0.00000000	         -0.00000000	         -0.00000000	         -0.00000000	          0.00000000	         -0.00000000	          0.00000000	          1.70618447	          0.00000000	          0.00000000	         -0.00000000	          0.00000000	
          1.31000000	       -112.61792328	        614.68269794	        -37.93250911	         -0.39671083	          0.00000000	         -0.01075789	          0.00000000	         -0.00000000	         -0.00000000	         -0.00000000	          0.00000000	         -0.00000000	          0.00000000	          1.80432523	          0.00000000	          0.00000000	         -0.00000000	          0.00000000	
          1.31500000	       -119.17516553	        645.05274908	        -34.64819780	         -0.39768309	          0.00000000	         -0.01109874	          0.00000000	         -0.00000000	         -0.00000000	          0.00000000	          0.00000000	          0.00000000	          0.00000000	          1.82548121	          0.00000000	          0.00000000	         -0.00000000	          0.00000000	
          1.32000000	       -124.36966711	        669.86104585	        -29.71434398	         -0.39655157	          0.00000000	         -0.01155210	          0.00000000	          0.00000000	          0.00000000	          0.00000000	          0.00000000	          0.00000000	          0.00000000	          1.76775083	          0.00000000	          0.00000000	         -0.00000000	          0.00000000	
          1.32500000	       -128.76814624	        690.13398163	        -23.27404230	         -0.39393477	          0.00000000	         -0.01212505	          0.00000000	          0.00000000	          0.00000000	          0.00000000	          0.00000000	          0.00000000	          0.00000000	          1.63860823	          0.00000000	          0.00000000	         -0.00000000	          0.00000000	
          1.33000000	       -132.79933088	        707.13756904	        -15.57616049	         -0.39032813	          0.00000000	         -0.01281279	         -0.00000000	          0.00000000	          0.00000000	          0.00000000	          0.00000000	          0.00000000	          0.00000000	          1.45438389	          0.00000000	          0.00000000	          0.00000000	          0.00000000	
          1.33500000	       -136.72312017	        722.17851836	         -6.97164280	         -0.38611689	          0.00000000	         -0.01360049	         -0.00000000	          0.00000000	          0.00000000	          0.00000000	          0.00000000	          0.00000000	          0.00000000	          1.23891910	          0.00000000	          0.00000000	          0.00000000	          0.00000000	
          1.34000000	       -140.68531107	        736.37984426	          2.09282531	         -0.38159644	          0.00000000	         -0.01446080	         -0.00000000	          0.00000000	          0.00000000	          0.00000000	          0.00000000	          0.00000000	          0.00000000	          1.02257609	          0.00000000	          0.00000000	          0.00000000	          0.00000000	
          1.34500000	       -144.73849054	        750.48339681	         11.09367569	         -0.37699812	          0.00000000	         -0.01535466	         -0.00000000	          0.00000000	          0.00000000	          0.00000000	          0.00000000	          0.00000000	          0.00000000	          0.84037200	          0.00000000	          0.00000000	          0.00000000	          0.00000000	
          1.35000000	       -148.79584109	        764.77876317	         19.49200875	         -0.37250931	          0.00000000	         -0.01623710	         -0.00000000	          0.00000000	          0.00000000	          0.00000000	          0.00000000	          0.00000000	          0.00000000	          0.72547488	          0.00000000	          0.00000000	          0.00000000	          0.00000000	
          1.35500000	       -152.61277433	        779.30781085	         26.85679656	         -0.36827387	          0.00000000	         -0.01706745	         -0.00000000	          0.00000000	          0.00000000	          0.00000000	          0.00000000	          0.00000000	          0.00000000	          0.69963191	          0.00000000	          0.00000000	          0.00000000	          0.00000000	
          1.36000000	       -155.90685215	        794.14866436	         32.97947082	         -0.36439017	          0.00000000	         -0.01781823	         -0.00000000	          0.00000000	          0.00000000	          0.00000000	          0.00000000	          0.00000000	          0.00000000	          0.76616151	          0.00000000	          0.00000000	          0.00000000	          0.00000000	
          1.36500000	       -158.52291903	        809.46290088	         37.87013839	         -0.36091508	          0.00000000	         -0.01847774	         -0.00000000	          0.00000000	          0.00000000	          0.00000000	          0.00000000	          0.00000000	          0.00000000	          0.91078244	          0.00000000	          0.00000000	          0.00000000	          0.00000000	
          1.37000000	       -160.45142943	        825.36194202	         41.66953348	         -0.35786989	          0.00000000	         -0.01904587	         -0.00000000	          0.00000001	          0.00000000	          0.00000000	          0.00000000	          0.00000000	          0.00000000	          1.10987830	          0.00000000	          0.00000000	          0.00000000	          0.00000000	
          1.37500000	       -161.73774927	        841.82168761	         44.56660451	         -0.35525040	          0.00000000	         -0.01952829	         -0.00000000	          0.00000001	          0.00000000	          0.00000000	          0.00000000	          0.00000000	          0.00000000	          1.33930309	          0.00000000	          0.00000000	          0.00000000	          0.00000000	
          1.38000000	       -162.42247557	        858.68643820	         46.73811128	         -0.35303668	          0.00000000	         -0.01993231	         -0.00000000	          0.00000000	          0.00000000	          0.00000000	          0.00000000	          0.00000000	          0.00000000	          1.58042842	          0.00000000	          0.00000000	          0.00000000	          0.00000000	
          1.38500000	       -162.53050315	        875.70539317	         48.31075581	         -0.35119835	          0.00000000	         -0.02026443	         -0.00000000	          0.00000000	          0.00000000	         -0.00000000	          0.00000000	         -0.00000000	          0.00000000	          1.82186672	          0.00000000	          0.00000000	          0.00000000	          0.00000000	
          1.39000000	       -162.07981461	        892.59199795	         49.35860967	         -0.34969748	          0.00000000	         -0.02053045	         -0.00000000	          0.00000000	          0.00000000	         -0.00000000	          0.00000000	         -0.00000000	          0.00000000	          2.05687619	          0.00000000	          0.00000000	          0.00000000	          0.00000000	
